<svg xmlns="http://www.w3.org/2000/svg" xmlns:xlink="http://www.w3.org/1999/xlink" width="1640" zoomAndPan="magnify" viewBox="0 0 1230 693.000001" height="924" preserveAspectRatio="xMidYMid meet" version="1.0"><defs><g/><clipPath id="c5899e2255"><path d="M 0.886719 0 L 1229.113281 0 L 1229.113281 692 L 0.886719 692 Z M 0.886719 0 " clip-rule="nonzero"/></clipPath></defs><g clip-path="url(#c5899e2255)"><path fill="#ffffff" d="M 0.886719 0 L 1229.113281 0 L 1229.113281 699.492188 L 0.886719 699.492188 Z M 0.886719 0 " fill-opacity="1" fill-rule="nonzero"/><path fill="#ffffff" d="M 0.886719 0 L 1229.113281 0 L 1229.113281 692 L 0.886719 692 Z M 0.886719 0 " fill-opacity="1" fill-rule="nonzero"/><path fill="#46e290" d="M 0.886719 0 L 1229.113281 0 L 1229.113281 692 L 0.886719 692 Z M 0.886719 0 " fill-opacity="1" fill-rule="nonzero"/></g><g fill="#ffffff" fill-opacity="1"><g transform="translate(379.774961, 440.86446)"><g><path d="M 55.515625 -36.046875 L 70.296875 -36.046875 L 70.296875 -7.6875 C 66.492188 -4.820312 62.097656 -2.625 57.109375 -1.09375 C 52.117188 0.4375 47.09375 1.203125 42.03125 1.203125 C 34.78125 1.203125 28.257812 -0.34375 22.46875 -3.4375 C 16.675781 -6.539062 12.128906 -10.835938 8.828125 -16.328125 C 5.535156 -21.816406 3.890625 -28.019531 3.890625 -34.9375 C 3.890625 -41.863281 5.535156 -48.070312 8.828125 -53.5625 C 12.128906 -59.050781 16.707031 -63.34375 22.5625 -66.4375 C 28.414062 -69.539062 35.003906 -71.09375 42.328125 -71.09375 C 48.453125 -71.09375 54.007812 -70.054688 59 -67.984375 C 64 -65.921875 68.195312 -62.925781 71.59375 -59 L 61.203125 -49.421875 C 56.210938 -54.679688 50.1875 -57.3125 43.125 -57.3125 C 38.664062 -57.3125 34.707031 -56.378906 31.25 -54.515625 C 27.789062 -52.648438 25.09375 -50.019531 23.15625 -46.625 C 21.226562 -43.226562 20.265625 -39.332031 20.265625 -34.9375 C 20.265625 -30.613281 21.226562 -26.753906 23.15625 -23.359375 C 25.09375 -19.960938 27.773438 -17.316406 31.203125 -15.421875 C 34.628906 -13.523438 38.539062 -12.578125 42.9375 -12.578125 C 47.59375 -12.578125 51.785156 -13.578125 55.515625 -15.578125 Z M 55.515625 -36.046875 "/></g></g></g><g fill="#ffffff" fill-opacity="1"><g transform="translate(456.751809, 440.86446)"><g><path d="M 22.0625 -46.625 C 23.925781 -49.21875 26.4375 -51.179688 29.59375 -52.515625 C 32.757812 -53.847656 36.40625 -54.515625 40.53125 -54.515625 L 40.53125 -40.140625 C 38.800781 -40.273438 37.640625 -40.34375 37.046875 -40.34375 C 32.585938 -40.34375 29.09375 -39.09375 26.5625 -36.59375 C 24.03125 -34.09375 22.765625 -30.347656 22.765625 -25.359375 L 22.765625 0 L 7.1875 0 L 7.1875 -53.71875 L 22.0625 -53.71875 Z M 22.0625 -46.625 "/></g></g></g><g fill="#ffffff" fill-opacity="1"><g transform="translate(499.782967, 440.86446)"><g><path d="M 32.75 0.796875 C 27.09375 0.796875 22.015625 -0.382812 17.515625 -2.75 C 13.023438 -5.113281 9.515625 -8.390625 6.984375 -12.578125 C 4.453125 -16.773438 3.1875 -21.535156 3.1875 -26.859375 C 3.1875 -32.179688 4.453125 -36.9375 6.984375 -41.125 C 9.515625 -45.320312 13.023438 -48.601562 17.515625 -50.96875 C 22.015625 -53.332031 27.09375 -54.515625 32.75 -54.515625 C 38.40625 -54.515625 43.460938 -53.332031 47.921875 -50.96875 C 52.378906 -48.601562 55.875 -45.320312 58.40625 -41.125 C 60.9375 -36.9375 62.203125 -32.179688 62.203125 -26.859375 C 62.203125 -21.535156 60.9375 -16.773438 58.40625 -12.578125 C 55.875 -8.390625 52.378906 -5.113281 47.921875 -2.75 C 43.460938 -0.382812 38.40625 0.796875 32.75 0.796875 Z M 32.75 -11.984375 C 36.738281 -11.984375 40.015625 -13.328125 42.578125 -16.015625 C 45.140625 -18.710938 46.421875 -22.328125 46.421875 -26.859375 C 46.421875 -31.378906 45.140625 -34.988281 42.578125 -37.6875 C 40.015625 -40.382812 36.738281 -41.734375 32.75 -41.734375 C 28.757812 -41.734375 25.460938 -40.382812 22.859375 -37.6875 C 20.265625 -34.988281 18.96875 -31.378906 18.96875 -26.859375 C 18.96875 -22.328125 20.265625 -18.710938 22.859375 -16.015625 C 25.460938 -13.328125 28.757812 -11.984375 32.75 -11.984375 Z M 32.75 -11.984375 "/></g></g></g><g fill="#ffffff" fill-opacity="1"><g transform="translate(565.178341, 440.86446)"><g><path d="M 61.296875 -53.71875 L 61.296875 0 L 46.53125 0 L 46.53125 -6.390625 C 44.46875 -4.054688 42.003906 -2.273438 39.140625 -1.046875 C 36.273438 0.179688 33.179688 0.796875 29.859375 0.796875 C 22.796875 0.796875 17.203125 -1.226562 13.078125 -5.28125 C 8.953125 -9.34375 6.890625 -15.367188 6.890625 -23.359375 L 6.890625 -53.71875 L 22.46875 -53.71875 L 22.46875 -25.65625 C 22.46875 -17.007812 26.09375 -12.6875 33.34375 -12.6875 C 37.070312 -12.6875 40.066406 -13.898438 42.328125 -16.328125 C 44.597656 -18.753906 45.734375 -22.363281 45.734375 -27.15625 L 45.734375 -53.71875 Z M 61.296875 -53.71875 "/></g></g></g><g fill="#ffffff" fill-opacity="1"><g transform="translate(633.768621, 440.86446)"><g><path d="M 38.9375 -54.515625 C 43.925781 -54.515625 48.46875 -53.363281 52.5625 -51.0625 C 56.65625 -48.769531 59.867188 -45.539062 62.203125 -41.375 C 64.535156 -37.21875 65.703125 -32.378906 65.703125 -26.859375 C 65.703125 -21.335938 64.535156 -16.492188 62.203125 -12.328125 C 59.867188 -8.171875 56.65625 -4.941406 52.5625 -2.640625 C 48.46875 -0.347656 43.925781 0.796875 38.9375 0.796875 C 32.082031 0.796875 26.691406 -1.363281 22.765625 -5.6875 L 22.765625 19.375 L 7.1875 19.375 L 7.1875 -53.71875 L 22.0625 -53.71875 L 22.0625 -47.53125 C 25.925781 -52.1875 31.550781 -54.515625 38.9375 -54.515625 Z M 36.25 -11.984375 C 40.238281 -11.984375 43.515625 -13.328125 46.078125 -16.015625 C 48.640625 -18.710938 49.921875 -22.328125 49.921875 -26.859375 C 49.921875 -31.378906 48.640625 -34.988281 46.078125 -37.6875 C 43.515625 -40.382812 40.238281 -41.734375 36.25 -41.734375 C 32.25 -41.734375 28.96875 -40.382812 26.40625 -37.6875 C 23.84375 -34.988281 22.5625 -31.378906 22.5625 -26.859375 C 22.5625 -22.328125 23.84375 -18.710938 26.40625 -16.015625 C 28.96875 -13.328125 32.25 -11.984375 36.25 -11.984375 Z M 36.25 -11.984375 "/></g></g></g><g fill="#ffffff" fill-opacity="1"><g transform="translate(702.658407, 440.86446)"><g><path d="M 39.34375 1.203125 C 29.351562 1.203125 21.578125 -1.554688 16.015625 -7.078125 C 10.460938 -12.609375 7.6875 -20.5 7.6875 -30.75 L 7.6875 -69.890625 L 23.859375 -69.890625 L 23.859375 -31.34375 C 23.859375 -18.832031 29.050781 -12.578125 39.4375 -12.578125 C 44.5 -12.578125 48.359375 -14.09375 51.015625 -17.125 C 53.679688 -20.15625 55.015625 -24.894531 55.015625 -31.34375 L 55.015625 -69.890625 L 70.984375 -69.890625 L 70.984375 -30.75 C 70.984375 -20.5 68.203125 -12.609375 62.640625 -7.078125 C 57.085938 -1.554688 49.320312 1.203125 39.34375 1.203125 Z M 39.34375 1.203125 "/></g></g></g><g fill="#ffffff" fill-opacity="1"><g transform="translate(781.332551, 440.86446)"><g><path d="M 38.9375 -54.515625 C 43.925781 -54.515625 48.46875 -53.363281 52.5625 -51.0625 C 56.65625 -48.769531 59.867188 -45.539062 62.203125 -41.375 C 64.535156 -37.21875 65.703125 -32.378906 65.703125 -26.859375 C 65.703125 -21.335938 64.535156 -16.492188 62.203125 -12.328125 C 59.867188 -8.171875 56.65625 -4.941406 52.5625 -2.640625 C 48.46875 -0.347656 43.925781 0.796875 38.9375 0.796875 C 32.082031 0.796875 26.691406 -1.363281 22.765625 -5.6875 L 22.765625 19.375 L 7.1875 19.375 L 7.1875 -53.71875 L 22.0625 -53.71875 L 22.0625 -47.53125 C 25.925781 -52.1875 31.550781 -54.515625 38.9375 -54.515625 Z M 36.25 -11.984375 C 40.238281 -11.984375 43.515625 -13.328125 46.078125 -16.015625 C 48.640625 -18.710938 49.921875 -22.328125 49.921875 -26.859375 C 49.921875 -31.378906 48.640625 -34.988281 46.078125 -37.6875 C 43.515625 -40.382812 40.238281 -41.734375 36.25 -41.734375 C 32.25 -41.734375 28.96875 -40.382812 26.40625 -37.6875 C 23.84375 -34.988281 22.5625 -31.378906 22.5625 -26.859375 C 22.5625 -22.328125 23.84375 -18.710938 26.40625 -16.015625 C 28.96875 -13.328125 32.25 -11.984375 36.25 -11.984375 Z M 36.25 -11.984375 "/></g></g></g></svg>