<svg xmlns="http://www.w3.org/2000/svg" xmlns:xlink="http://www.w3.org/1999/xlink" width="500" zoomAndPan="magnify" viewBox="0 0 375 374.999991" height="500" preserveAspectRatio="xMidYMid meet" version="1.0"><rect x="-37.5" width="450" fill="#ffffff" y="-37.499999" height="449.999989" fill-opacity="1"/><rect x="-37.5" width="450" fill="#ffffff" y="-37.499999" height="449.999989" fill-opacity="1"/><rect x="-37.5" width="450" fill="#46e297" y="-37.499999" height="449.999989" fill-opacity="1"/><path fill="#ffffff" d="M 216.023438 154.550781 C 195.449219 154.550781 176.730469 148.203125 161.90625 136.199219 C 147.230469 124.316406 136.375 106.882812 130.453125 85.714844 C 135.789062 83.4375 139.03125 81.957031 144.320312 79.367188 C 155.835938 117.003906 183.277344 138.539062 219.886719 138.539062 C 226.164062 138.539062 232.707031 137.894531 239.367188 136.613281 C 239.539062 142.355469 239.75 146.023438 240.238281 151.847656 C 231.984375 153.640625 223.847656 154.550781 216.023438 154.550781 " fill-opacity="1" fill-rule="nonzero"/><path fill="#ffffff" d="M 214.777344 104.789062 C 209.648438 113.304688 198.59375 116.046875 190.082031 110.917969 C 181.570312 105.792969 178.824219 94.734375 183.953125 86.222656 C 189.082031 77.714844 200.136719 74.96875 208.648438 80.09375 C 217.160156 85.222656 219.902344 96.277344 214.777344 104.789062 " fill-opacity="1" fill-rule="nonzero"/><path fill="#ffffff" d="M 85.714844 244.496094 C 83.441406 239.160156 81.960938 235.921875 79.367188 230.625 C 123.523438 217.09375 145.296875 180.945312 136.613281 135.582031 C 142.355469 135.40625 146.023438 135.195312 151.847656 134.707031 C 157.476562 160.605469 154.28125 184.511719 142.582031 203.9375 C 130.882812 223.359375 111.238281 237.363281 85.714844 244.496094 " fill-opacity="1" fill-rule="nonzero"/><path fill="#ffffff" d="M 104.789062 160.171875 C 113.300781 165.296875 116.046875 176.355469 110.917969 184.867188 C 105.792969 193.375 94.734375 196.121094 86.222656 190.996094 C 77.710938 185.867188 74.96875 174.8125 80.097656 166.300781 C 85.222656 157.785156 96.277344 155.042969 104.789062 160.171875 " fill-opacity="1" fill-rule="nonzero"/><path fill="#ffffff" d="M 230.625 295.582031 C 219.109375 257.941406 191.667969 236.40625 155.0625 236.40625 C 148.785156 236.40625 142.242188 237.054688 135.582031 238.332031 C 135.40625 232.585938 135.195312 228.914062 134.707031 223.101562 C 142.960938 221.304688 151.101562 220.398438 158.921875 220.398438 C 179.5 220.398438 198.214844 226.746094 213.042969 238.746094 C 227.714844 250.628906 238.570312 268.066406 244.496094 289.230469 C 239.164062 291.507812 235.921875 292.988281 230.625 295.582031 " fill-opacity="1" fill-rule="nonzero"/><path fill="#ffffff" d="M 160.171875 270.15625 C 165.296875 261.644531 176.355469 258.902344 184.867188 264.027344 C 193.375 269.152344 196.121094 280.210938 190.996094 288.722656 C 185.867188 297.234375 174.8125 299.976562 166.300781 294.851562 C 157.789062 289.722656 155.042969 278.667969 160.171875 270.15625 " fill-opacity="1" fill-rule="nonzero"/><path fill="#ffffff" d="M 223.101562 240.238281 C 217.46875 214.34375 220.664062 190.433594 232.367188 171.007812 C 244.066406 151.585938 263.707031 137.585938 289.230469 130.453125 C 291.507812 135.792969 292.992188 139.035156 295.582031 144.324219 C 251.421875 157.855469 229.648438 194 238.332031 239.367188 C 232.59375 239.539062 228.921875 239.753906 223.101562 240.238281 " fill-opacity="1" fill-rule="nonzero"/><path fill="#ffffff" d="M 270.15625 214.777344 C 261.644531 209.648438 258.902344 198.59375 264.027344 190.082031 C 269.152344 181.570312 280.210938 178.824219 288.722656 183.953125 C 297.234375 189.082031 299.976562 200.136719 294.851562 208.648438 C 289.722656 217.160156 278.667969 219.902344 270.15625 214.777344 " fill-opacity="1" fill-rule="nonzero"/></svg>