<svg width="300" height="360" viewBox="0 0 300 360" fill="none" xmlns="http://www.w3.org/2000/svg">
<path fill-rule="evenodd" clip-rule="evenodd" d="M131.502 1.45777C120.883 4.12437 105.409 12.3001 96.9837 19.6982C71.545 42.0346 62.7916 81.8238 76.6583 112.086C79.6148 118.541 82.0355 124.162 82.0355 124.579C82.0355 124.995 79.4929 125.337 76.3865 125.337C69.5001 125.337 62.036 132.699 62.07 139.458C62.082 142.136 63.3553 149.067 64.8965 154.86L67.701 165.39L62.3698 168.147C49.9943 174.547 44.9089 186.265 48.1772 200.854C49.2827 205.787 49.7724 210.239 49.2627 210.748C48.7549 211.256 45.7825 211.11 42.6561 210.424C37.5848 209.311 36.3334 207.3 31.0202 191.744C26.0408 177.17 24.1018 173.854 19.1824 171.519C14.129 169.12 12.5839 169.128 8.21813 171.579C-1.2729 176.906 -2.0465 181.753 3.35667 202.021C6.03527 212.068 9.12566 223.654 10.2231 227.769C12.4259 236.027 19.854 241.254 29.463 241.306C32.5414 241.324 36.1235 242.014 37.4229 242.842C39.056 243.879 40.2194 258.243 41.1849 289.285C41.9545 314.004 43.5117 336.027 44.6451 338.226C49.7344 348.095 61.2744 350.173 68.8584 342.589L73.49 337.958L78.8732 342.589C85.7016 348.464 92.3521 348.472 99.1606 342.615L104.514 338.01L105.799 291.778C106.949 250.416 107.988 240.577 110.902 243.491C111.388 243.977 112.518 268.046 113.411 296.977L115.036 349.582L120.635 354.397C123.738 357.066 128.793 359.215 131.967 359.215C139.695 359.215 149.948 350.395 150.18 343.545C150.354 338.442 150.436 338.486 152.203 344.596C156.315 358.803 171.953 363.556 181.889 353.62L187.486 348.023L188.972 295.554C189.787 266.697 191.003 243.633 191.67 244.301C192.338 244.966 193.497 266.349 194.245 291.814L195.608 338.116L200.901 342.667C207.652 348.474 214.314 348.448 221.127 342.589L226.51 337.958L231.142 342.589C238.726 350.173 250.266 348.095 255.355 338.226C256.488 336.027 258.046 314.004 258.815 289.285C259.781 258.243 260.944 243.879 262.577 242.842C263.876 242.014 267.459 241.324 270.537 241.306C280.146 241.254 287.574 236.027 289.777 227.769C290.874 223.654 293.965 212.068 296.643 202.021C302.046 181.753 301.273 176.906 291.782 171.579C287.416 169.128 285.871 169.12 280.818 171.519C275.898 173.854 273.959 177.17 268.98 191.744C263.667 207.3 262.415 209.311 257.344 210.424C249.834 212.074 249.286 211.176 251.893 201.499C254.835 190.573 251.703 179.141 243.987 172.65C240.751 169.926 237.186 167.387 236.069 167.007C234.768 166.563 235.102 162.787 236.995 156.503C238.622 151.106 239.953 143.841 239.953 140.359C239.953 132.199 232.869 125.337 224.443 125.337H218.186L223.154 114.485C234.018 90.7551 233.664 56.541 222.598 60.7867C220.185 61.7123 219.792 63.9511 220.757 71.2313C222.264 82.5993 218.952 101.571 213.643 111.98C208.447 122.165 195.852 135.692 187.253 140.323L180.388 144.019L175.283 138.176C170.579 132.793 170.445 132.143 173.582 129.927C186.223 120.993 189.885 117.731 194.339 111.436C200.907 102.151 203.972 92.788 203.972 81.9977C203.972 75.8109 203.032 72.8784 200.771 72.0109C196.502 70.3717 194.045 74.7055 194.007 83.9386C193.939 100.684 177.899 119.312 160.297 123.086C117.465 132.271 88.7121 82.3994 118.323 50.2762C132.723 34.6524 154.47 31.4221 172.828 42.1805C177.316 44.8111 182.701 48.855 184.794 51.1678C189.875 56.7828 193.977 56.509 193.977 50.5541C193.977 41.5548 173.993 28.5876 156.561 26.2748C135.398 23.4683 111.74 36.3295 101.635 56.1392C95.8863 67.4073 94.7369 84.4364 98.8827 96.9159C103.011 109.349 115.028 123.382 125.643 128.168C133.267 131.606 133.445 131.898 130.026 135.316C128.067 137.275 125.531 140.543 124.393 142.578C122.466 146.022 121.525 145.726 110.824 138.306C65.3183 106.755 71.3411 39.312 121.775 15.6643C131.37 11.1647 135.634 10.4091 150.999 10.4791C174.229 10.585 186.697 16.1521 202.896 33.6489C210.035 41.3609 215.166 45.3468 217.033 44.6292C222.788 42.4203 219.764 36.3395 206.411 23.2744C196.464 13.5434 189.679 8.79593 180.924 5.44169C167.599 0.338354 143.649 -1.59264 131.502 1.45777ZM203.316 53.8764C172.722 65.96 147.189 77.1482 146.58 78.7394C143.307 87.2649 150.816 85.3359 206.79 63.2655C250.965 45.8486 263.94 39.9476 263.94 37.273C263.94 35.37 262.817 33.3831 261.442 32.8593C260.068 32.3356 233.91 41.7927 203.316 53.8764ZM138.046 54.7639C107.248 70.7355 126.057 118.217 158.889 107.382C168.284 104.28 178.395 92.5421 177.6 85.6577C176.846 79.1491 171.941 78.6914 168.872 84.8442C162.653 97.3176 152.459 101.757 142.21 96.4581C130.31 90.3053 128.293 76.7724 137.852 67.2134C144.207 60.8587 149.122 60.0711 159.351 63.7712C164.532 65.6442 166.521 65.6382 168.41 63.7492C170.307 61.8522 169.924 60.4169 166.637 57.1307C160.776 51.2697 146.986 50.1283 138.046 54.7639ZM90.3832 158.26C94.6909 170.319 99.1826 180.786 100.364 181.518C101.547 182.247 107.928 183.459 114.545 184.206C123.604 185.232 128.397 187.033 133.962 191.506C146.68 201.725 160.389 201.017 170.713 189.607C173.462 186.571 178.021 185.15 188.244 184.142C195.844 183.395 202.716 181.795 203.516 180.59C204.316 179.385 208.196 168.934 212.136 157.366C218.584 138.434 219.782 136.331 224.129 136.331C231.072 136.331 230.96 140.633 223.282 169.314C215.7 197.637 215.094 198.313 195.366 200.39C185.893 201.387 183.468 202.409 182.157 205.953C181.274 208.34 179.924 240.395 179.159 277.186C178.275 319.611 176.984 345.018 175.631 346.649C172.914 349.924 167.087 349.96 164.438 346.721C163.313 345.348 160.862 327.581 158.989 307.242C157.116 286.903 155.173 269.586 154.674 268.762C153.398 266.663 148.467 266.891 147.096 269.11C146.466 270.127 144.621 287.342 142.994 307.368C141.367 327.393 139.018 345.002 137.776 346.499C134.618 350.303 128.509 349.892 126.292 345.722C125.269 343.797 123.768 311.426 122.958 273.783C121.885 223.925 120.821 204.795 119.046 203.32C117.705 202.209 111.074 200.72 104.31 200.012C97.5474 199.306 90.637 197.721 88.9559 196.492C85.3678 193.869 71.2132 142.374 72.8823 138.02C73.524 136.347 75.8828 135.33 78.2875 135.692C81.7477 136.211 84.0285 140.465 90.3832 158.26ZM160.626 139.564C172.318 145.542 175.431 160.726 167.965 175.361C158.136 194.629 140.641 192.308 132.661 170.677C128.261 158.754 129.387 151.547 136.807 144.127C144.073 136.861 152.269 135.29 160.626 139.564ZM202.273 155.463C196.646 172.21 196.572 172.31 188.8 173.596C184.5 174.307 180.93 174.759 180.862 174.601C180.796 174.441 181.096 169.772 181.528 164.225C182.275 154.64 182.745 153.91 191.033 149.514C195.826 146.972 201.293 143.184 203.18 141.099C205.069 139.012 206.91 137.603 207.272 137.966C207.634 138.328 205.385 146.202 202.273 155.463ZM113.081 151.625C118.379 154.75 119.702 157.002 120.755 164.684C121.455 169.788 121.801 174.139 121.521 174.353C121.243 174.569 117.685 174.327 113.613 173.82C106.463 172.928 106.061 172.444 101.827 159.611C99.4145 152.305 96.9417 144.979 96.3321 143.334C95.4645 140.995 96.476 141.163 100.95 144.093C104.1 146.158 109.559 149.546 113.081 151.625ZM73.6799 188.32C75.1991 193.807 78.6193 200.616 81.2799 203.448C85.8815 208.348 85.9435 208.753 82.5773 211.764C75.2471 218.318 66.7655 216.437 61.2064 207.026C56.4189 198.921 56.3909 186.451 61.1505 181.192C66.7375 175.019 70.6055 177.22 73.6799 188.32ZM238.916 181.266C249.458 192.916 236.365 220.227 222.666 215.16C215.83 212.629 215.228 209.435 220.645 204.416C223.418 201.845 226.692 195.82 227.921 191.025C231.997 175.125 232.751 174.455 238.916 181.266ZM22.1908 199.798C25.8269 209.969 29.7609 218.95 30.9323 219.758C32.1036 220.565 37.3029 221.239 42.4862 221.257C47.6695 221.273 56.1271 222.718 61.2804 224.467C70.6095 227.636 73.8238 227.522 89.0319 223.498C93.4296 222.334 99.9522 221.361 103.524 221.335C109.029 221.295 110.021 222.006 110.021 225.994C110.021 229.592 108.49 231.142 103.524 232.561L97.0277 234.42L95.3566 283.324C94.3471 312.841 92.8299 333.258 91.5306 334.827C87.0629 340.217 84.2224 332.437 81.8236 308.241C79.177 281.525 77.5299 275.259 73.1602 275.259C68.1928 275.259 66.6036 281.225 65.1764 305.243C63.5632 332.421 62.9095 335.227 58.198 335.227C53.6724 335.227 52.1232 322.302 51.8753 282.461C51.7794 266.955 51.1057 249.772 50.3761 244.275C49.0888 234.544 48.8409 234.236 41.057 232.613C19.8421 228.191 22.0569 230.412 15.8242 207.278C9.30956 183.091 9.10367 181.308 12.8257 181.308C14.4909 181.308 18.1969 188.626 22.1908 199.798ZM289.877 183.806C289.849 185.182 287.284 195.742 284.176 207.278C277.943 230.412 280.158 228.191 258.943 232.613C251.159 234.236 250.911 234.544 249.624 244.275C248.894 249.772 248.213 267.763 248.107 284.254C247.851 324.135 246.48 335.227 241.808 335.227C237.142 335.227 236.483 332.491 234.828 306.242C233.296 281.961 231.595 275.259 226.96 275.259C222.5 275.259 220.891 281.237 218.084 308.241C215.476 333.352 213.325 339.497 208.783 334.827C206.97 332.964 205.849 318.436 204.821 283.548L203.388 234.868L197.683 232.879C193.429 231.396 191.978 229.6 191.978 225.812C191.978 220.823 192.172 220.759 203.182 222.052C209.345 222.778 216.031 224.251 218.042 225.327C223.1 228.033 229.552 227.729 238.953 224.343C243.351 222.758 250.547 221.411 254.945 221.347C270.511 221.123 271.209 220.479 278.003 200.09C281.979 188.156 285.293 181.308 287.092 181.308C288.651 181.308 289.905 182.433 289.877 183.806Z" fill="black"/>
</svg>
