<svg width="15" height="26" viewBox="0 0 15 26" fill="none" xmlns="http://www.w3.org/2000/svg">
<path d="M12.5112 25.9999C12.191 26.0008 11.8746 25.9396 11.5853 25.8207C11.296 25.7018 11.0411 25.5282 10.8394 25.3128L0.487562 14.171C0.17233 13.8387 0 13.4219 0 12.9918C0 12.5617 0.17233 12.1449 0.487562 11.8126L11.2038 0.670834C11.5676 0.29161 12.0903 0.0531301 12.6571 0.00785776C13.2238 -0.0374146 13.7881 0.114229 14.2257 0.429428C14.6634 0.744627 14.9387 1.19756 14.9909 1.68859C15.0432 2.17962 14.8682 2.66853 14.5044 3.04775L4.92407 13.0011L14.1829 22.9544C14.445 23.227 14.6114 23.5589 14.6626 23.9109C14.7138 24.2629 14.6475 24.6202 14.4717 24.9406C14.2958 25.261 14.0177 25.531 13.6703 25.7187C13.3228 25.9065 12.9206 26.004 12.5112 25.9999Z" fill="black"/>
</svg>
