<svg width="27" height="16" viewBox="0 0 27 16" fill="none" xmlns="http://www.w3.org/2000/svg">
<path d="M26.4999 2.98884C26.5008 3.30903 26.4396 3.6254 26.3207 3.91469C26.2018 4.20398 26.0282 4.45886 25.8128 4.66057L14.671 15.0124C14.3387 15.3277 13.9219 15.5 13.4918 15.5C13.0617 15.5 12.6449 15.3277 12.3126 15.0124L1.17083 4.29622C0.79161 3.93243 0.55313 3.40967 0.507858 2.84294C0.462585 2.27621 0.614229 1.71194 0.929428 1.27425C1.24463 0.836564 1.69756 0.56132 2.18859 0.509069C2.67962 0.456817 3.16853 0.631837 3.54775 0.995628L13.5011 10.5759L23.4544 1.31712C23.727 1.05503 24.0589 0.888553 24.4109 0.837373C24.7629 0.786193 25.1202 0.852456 25.4406 1.02832C25.761 1.20419 26.031 1.48229 26.2187 1.82974C26.4065 2.17718 26.504 2.57941 26.4999 2.98884Z" fill="black"/>
</svg>
