<svg width="15" height="26" viewBox="0 0 15 26" fill="none" xmlns="http://www.w3.org/2000/svg">
<path d="M2.48884 0.000127126C2.80903 -0.000816161 3.1254 0.060412 3.41469 0.179311C3.70398 0.29821 3.95886 0.47176 4.16057 0.687207L14.5124 11.829C14.8277 12.1613 15 12.5781 15 13.0082C15 13.4383 14.8277 13.8551 14.5124 14.1874L3.79622 25.3292C3.43243 25.7084 2.90967 25.9469 2.34294 25.9921C1.77621 26.0374 1.21194 25.8858 0.77425 25.5706C0.336564 25.2554 0.0613203 24.8024 0.0090686 24.3114C-0.0431831 23.8204 0.131837 23.3315 0.495628 22.9522L10.0759 12.9989L0.817116 3.04555C0.555033 2.77298 0.388553 2.44106 0.337373 2.08908C0.286193 1.73709 0.352456 1.37977 0.528321 1.05939C0.704187 0.73901 0.982294 0.468985 1.32974 0.281264C1.67718 0.093543 2.07941 -0.00401725 2.48884 0.000127126Z" fill="black"/>
</svg>
