<svg width="32" height="32" viewBox="0 0 32 32" fill="none" xmlns="http://www.w3.org/2000/svg">
<g clip-path="url(#clip0_2251_1774)">
<path fill-rule="evenodd" clip-rule="evenodd" d="M16 32C20.2435 32 24.3131 30.3143 27.3137 27.3137C30.3143 24.3131 32 20.2435 32 16C32 11.7565 30.3143 7.68687 27.3137 4.68629C24.3131 1.68571 20.2435 0 16 0C11.7565 0 7.68687 1.68571 4.68629 4.68629C1.68571 7.68687 0 11.7565 0 16C0 20.2435 1.68571 24.3131 4.68629 27.3137C7.68687 30.3143 11.7565 32 16 32ZM8.44 8.44C8.72125 8.1591 9.1025 8.00132 9.5 8.00132C9.8975 8.00132 10.2787 8.1591 10.56 8.44L16 13.88L21.44 8.44C21.5773 8.29263 21.7429 8.17442 21.9269 8.09244C22.1109 8.01045 22.3096 7.96637 22.511 7.96282C22.7124 7.95926 22.9124 7.99631 23.0992 8.07175C23.286 8.1472 23.4556 8.25949 23.5981 8.40192C23.7405 8.54436 23.8528 8.71403 23.9282 8.9008C24.0037 9.08758 24.0407 9.28764 24.0372 9.48905C24.0336 9.69045 23.9895 9.88908 23.9076 10.0731C23.8256 10.2571 23.7074 10.4227 23.56 10.56L18.12 16L23.56 21.44C23.7074 21.5773 23.8256 21.7429 23.9076 21.9269C23.9895 22.1109 24.0336 22.3096 24.0372 22.511C24.0407 22.7124 24.0037 22.9124 23.9282 23.0992C23.8528 23.286 23.7405 23.4556 23.5981 23.5981C23.4556 23.7405 23.286 23.8528 23.0992 23.9282C22.9124 24.0037 22.7124 24.0407 22.511 24.0372C22.3096 24.0336 22.1109 23.9895 21.9269 23.9076C21.7429 23.8256 21.5773 23.7074 21.44 23.56L16 18.12L10.56 23.56C10.2757 23.825 9.89956 23.9692 9.51095 23.9624C9.12235 23.9555 8.75158 23.7981 8.47676 23.5232C8.20193 23.2484 8.04451 22.8776 8.03765 22.489C8.03079 22.1004 8.17504 21.7244 8.44 21.44L13.88 16L8.44 10.56C8.1591 10.2787 8.00132 9.8975 8.00132 9.5C8.00132 9.1025 8.1591 8.72125 8.44 8.44Z" fill="black"/>
</g>
<defs>
<clipPath id="clip0_2251_1774">
<rect width="32" height="32" fill="white"/>
</clipPath>
</defs>
</svg>
