<svg width="201" height="150" viewBox="0 0 201 150" fill="none" xmlns="http://www.w3.org/2000/svg">
<path fill-rule="evenodd" clip-rule="evenodd" d="M198.163 15.4618C199.015 14.5833 199.682 13.5421 200.124 12.4002C200.565 11.2583 200.772 10.0391 200.732 8.81553C200.692 7.59192 200.406 6.38891 199.891 5.27834C199.375 4.16776 198.642 3.17237 197.733 2.35159C196.825 1.53081 195.761 0.901453 194.604 0.501093C193.447 0.100733 192.221 -0.0624148 191 0.0213682C189.778 0.105151 188.586 0.434154 187.495 0.988745C186.403 1.54334 185.435 2.31214 184.647 3.24928L75.4725 123.889L15.4124 66.5539C13.6648 64.8836 11.3253 63.976 8.90856 64.0307C6.49179 64.0854 4.19573 65.0979 2.52549 66.8455C0.855246 68.5931 -0.0523575 70.9326 0.00233604 73.3494C0.0570296 75.7662 1.06954 78.0622 2.81712 79.7325L69.6579 143.529L76.4295 150L82.7089 143.055L198.163 15.4618Z" fill="#46E297"/>
</svg>
