<svg width="77" height="59" viewBox="0 0 77 59" fill="none" xmlns="http://www.w3.org/2000/svg">
<path d="M74.4334 14.366L74.4381 14.3699C75.0551 14.8812 75.5183 15.5563 75.7744 16.3193C76.0306 17.0823 76.0695 17.9023 75.8865 18.6865L67.4616 54.6537L67.4615 54.6537L67.459 54.6652C67.3338 55.2296 67.0937 55.7614 66.7542 56.2273C66.4146 56.6932 65.983 57.0829 65.4867 57.3722L65.4851 57.3732C64.4684 57.9685 63.2593 58.1344 62.1219 57.8355C46.6519 53.5374 30.3117 53.538 14.8419 57.8372L14.8419 57.8372L14.8301 57.8406C14.4701 57.9454 14.0972 57.9991 13.7224 58C12.9383 57.9988 12.1688 57.7845 11.4953 57.3793L11.4905 57.3764C10.995 57.082 10.5638 56.6894 10.2231 56.222C9.88245 55.7547 9.63952 55.2223 9.50931 54.6572L9.50869 54.6546L1.11668 18.6866L1.11608 18.684C0.931012 17.9 0.967827 17.0796 1.22228 16.3157C1.47672 15.5519 1.93844 14.8755 2.55454 14.3626C3.1706 13.8499 3.91652 13.521 4.70785 13.4125C5.49918 13.304 6.30504 13.4202 7.0345 13.7481L7.03647 13.749L23.7544 21.2216L24.5938 21.5968L25.038 20.7918L34.7467 3.19846C34.7475 3.19706 34.7483 3.19567 34.7491 3.19427C35.1266 2.5278 35.6723 1.97415 36.3305 1.58902C36.9901 1.2031 37.7392 1 38.5016 1C39.264 1 40.0131 1.2031 40.6726 1.58902C41.3308 1.97416 41.8766 2.5278 42.2541 3.19428C42.2548 3.19567 42.2556 3.19706 42.2564 3.19846L51.9651 20.7918L52.4094 21.5968L53.2487 21.2216L69.9667 13.749L69.9698 13.7476C70.6967 13.4197 71.5004 13.3038 72.2892 13.413C73.0781 13.5222 73.8211 13.8522 74.4334 14.366Z" fill="white" stroke="black" stroke-width="2"/>
</svg>
