<svg width="16" height="15" viewBox="0 0 16 15" fill="none" xmlns="http://www.w3.org/2000/svg">
<path d="M4.37582 0C4.51902 0 4.65635 0.0553123 4.75761 0.153769C4.85887 0.252226 4.91576 0.385761 4.91576 0.525V1.50675H10.7139V0.53175C10.7139 0.392511 10.7708 0.258976 10.8721 0.160519C10.9733 0.0620623 11.1107 0.00675 11.2539 0.00675C11.3971 0.00675 11.5344 0.0620623 11.6357 0.160519C11.7369 0.258976 11.7938 0.392511 11.7938 0.53175V1.50675H13.8841C14.2932 1.50675 14.6854 1.66468 14.9747 1.94582C15.264 2.22697 15.4266 2.60831 15.4268 3.006V13.5007C15.4266 13.8984 15.264 14.2798 14.9747 14.5609C14.6854 14.8421 14.2932 15 13.8841 15H1.54268C1.13367 15 0.741401 14.8421 0.452114 14.5609C0.162827 14.2798 0.000204506 13.8984 0 13.5007L0 3.006C0.000204506 2.60831 0.162827 2.22697 0.452114 1.94582C0.741401 1.66468 1.13367 1.50675 1.54268 1.50675H3.83588V0.52425C3.83608 0.385141 3.89306 0.251798 3.9943 0.153504C4.09553 0.0552092 4.23275 -1.41948e-07 4.37582 0ZM1.07988 5.8065V13.5007C1.07988 13.5598 1.09185 13.6184 1.11511 13.673C1.13836 13.7276 1.17245 13.7772 1.21543 13.8189C1.25841 13.8607 1.30942 13.8939 1.36557 13.9165C1.42172 13.9391 1.48191 13.9507 1.54268 13.9508H13.8841C13.9449 13.9507 14.0051 13.9391 14.0612 13.9165C14.1174 13.8939 14.1684 13.8607 14.2114 13.8189C14.2544 13.7772 14.2885 13.7276 14.3117 13.673C14.335 13.6184 14.3469 13.5598 14.3469 13.5007V5.817L1.07988 5.8065ZM3.83588 2.556H1.54268C1.48191 2.556 1.42172 2.56764 1.36557 2.59025C1.30942 2.61287 1.25841 2.64602 1.21543 2.6878C1.17245 2.72959 1.13836 2.7792 1.11511 2.83379C1.09185 2.88839 1.07988 2.94691 1.07988 3.006V4.75725L14.3469 4.76775V3.006C14.3469 2.94691 14.335 2.88839 14.3117 2.83379C14.2885 2.7792 14.2544 2.72959 14.2114 2.6878C14.1684 2.64602 14.1174 2.61287 14.0612 2.59025C14.0051 2.56764 13.9449 2.556 13.8841 2.556H11.7938V3.25275C11.7938 3.39199 11.7369 3.52552 11.6357 3.62398C11.5344 3.72244 11.3971 3.77775 11.2539 3.77775C11.1107 3.77775 10.9733 3.72244 10.8721 3.62398C10.7708 3.52552 10.7139 3.39199 10.7139 3.25275V2.556H4.91576V3.246C4.91576 3.38524 4.85887 3.51877 4.75761 3.61723C4.65635 3.71569 4.51902 3.771 4.37582 3.771C4.23262 3.771 4.09528 3.71569 3.99402 3.61723C3.89277 3.51877 3.83588 3.38524 3.83588 3.246V2.556Z" fill="#A1A1A1"/>
</svg>
