<svg width="8" height="8" viewBox="0 0 8 8" fill="none" xmlns="http://www.w3.org/2000/svg">
<path d="M2.2692 0C2.34346 0 2.41468 0.0294999 2.46719 0.0820101C2.5197 0.13452 2.5492 0.205739 2.5492 0.28V0.8036H5.556V0.2836C5.556 0.209339 5.5855 0.13812 5.63801 0.0856101C5.69052 0.0330999 5.76174 0.0036 5.836 0.0036C5.91026 0.0036 5.98148 0.0330999 6.03399 0.0856101C6.0865 0.13812 6.116 0.209339 6.116 0.2836V0.8036H7.2C7.4121 0.8036 7.61553 0.887831 7.76554 1.03777C7.91556 1.18772 7.99989 1.3911 8 1.6032V7.2004C7.99989 7.4125 7.91556 7.61588 7.76554 7.76583C7.61553 7.91577 7.4121 8 7.2 8H0.8C0.587896 8 0.384474 7.91577 0.234456 7.76583C0.0844383 7.61588 0.000106052 7.4125 0 7.2004L0 1.6032C0.000106052 1.3911 0.0844383 1.18772 0.234456 1.03777C0.384474 0.887831 0.587896 0.8036 0.8 0.8036H1.9892V0.2796C1.98931 0.205409 2.01885 0.134292 2.07135 0.0818686C2.12385 0.0294449 2.19501 -7.57054e-08 2.2692 0ZM0.56 3.0968V7.2004C0.56 7.23192 0.566208 7.26313 0.578269 7.29224C0.59033 7.32136 0.608008 7.34782 0.630294 7.37011C0.65258 7.39239 0.679038 7.41007 0.708156 7.42213C0.737274 7.43419 0.768483 7.4404 0.8 7.4404H7.2C7.23152 7.4404 7.26273 7.43419 7.29184 7.42213C7.32096 7.41007 7.34742 7.39239 7.36971 7.37011C7.39199 7.34782 7.40967 7.32136 7.42173 7.29224C7.43379 7.26313 7.44 7.23192 7.44 7.2004V3.1024L0.56 3.0968ZM1.9892 1.3632H0.8C0.768483 1.3632 0.737274 1.36941 0.708156 1.38147C0.679038 1.39353 0.65258 1.41121 0.630294 1.43349C0.608008 1.45578 0.59033 1.48224 0.578269 1.51136C0.566208 1.54047 0.56 1.57168 0.56 1.6032V2.5372L7.44 2.5428V1.6032C7.44 1.57168 7.43379 1.54047 7.42173 1.51136C7.40967 1.48224 7.39199 1.45578 7.36971 1.43349C7.34742 1.41121 7.32096 1.39353 7.29184 1.38147C7.26273 1.36941 7.23152 1.3632 7.2 1.3632H6.116V1.7348C6.116 1.80906 6.0865 1.88028 6.03399 1.93279C5.98148 1.9853 5.91026 2.0148 5.836 2.0148C5.76174 2.0148 5.69052 1.9853 5.63801 1.93279C5.5855 1.88028 5.556 1.80906 5.556 1.7348V1.3632H2.5492V1.7312C2.5492 1.80546 2.5197 1.87668 2.46719 1.92919C2.41468 1.9817 2.34346 2.0112 2.2692 2.0112C2.19494 2.0112 2.12372 1.9817 2.07121 1.92919C2.0187 1.87668 1.9892 1.80546 1.9892 1.7312V1.3632Z" fill="#A1A1A1"/>
</svg>
