<svg width="17" height="19" viewBox="0 0 17 19" fill="none" xmlns="http://www.w3.org/2000/svg">
<path d="M0.678571 19C0.498603 19 0.326006 18.9285 0.198749 18.8013C0.0714923 18.674 0 18.5014 0 18.3214C0 18.1415 0.0714923 17.9689 0.198749 17.8416C0.326006 17.7143 0.498603 17.6429 0.678571 17.6429H2.03571V16.2857C2.03544 15.1335 2.36114 14.0046 2.9752 13.0296C3.58926 12.0546 4.46662 11.2732 5.50593 10.7757C5.8995 10.5871 6.10714 10.2641 6.10714 9.975V9.025C6.10714 8.73593 5.89814 8.41293 5.50593 8.22429C4.46662 7.72677 3.58926 6.94537 2.9752 5.97037C2.36114 4.99537 2.03544 3.86654 2.03571 2.71429V1.35714H0.678571C0.498603 1.35714 0.326006 1.28565 0.198749 1.15839C0.0714923 1.03114 0 0.85854 0 0.678571C0 0.498603 0.0714923 0.326006 0.198749 0.198749C0.326006 0.0714921 0.498603 0 0.678571 0H15.6071C15.7871 0 15.9597 0.0714921 16.087 0.198749C16.2142 0.326006 16.2857 0.498603 16.2857 0.678571C16.2857 0.85854 16.2142 1.03114 16.087 1.15839C15.9597 1.28565 15.7871 1.35714 15.6071 1.35714H14.25V2.71429C14.2503 3.86654 13.9246 4.99537 13.3105 5.97037C12.6965 6.94537 11.8191 7.72677 10.7798 8.22429C10.3862 8.41293 10.1786 8.73593 10.1786 9.025V9.975C10.1786 10.2641 10.3876 10.5871 10.7798 10.7757C11.8191 11.2732 12.6965 12.0546 13.3105 13.0296C13.9246 14.0046 14.2503 15.1335 14.25 16.2857V17.6429H15.6071C15.7871 17.6429 15.9597 17.7143 16.087 17.8416C16.2142 17.9689 16.2857 18.1415 16.2857 18.3214C16.2857 18.5014 16.2142 18.674 16.087 18.8013C15.9597 18.9285 15.7871 19 15.6071 19H0.678571ZM3.39286 1.35714V2.71429C3.39286 3.44307 3.55571 4.1325 3.85021 4.75H12.4355C12.7286 4.1325 12.8929 3.44307 12.8929 2.71429V1.35714H3.39286ZM7.46429 9.975C7.46429 10.9264 6.81557 11.6524 6.09221 11.9999C5.28376 12.3868 4.60127 12.9946 4.12361 13.753C3.64595 14.5114 3.39261 15.3894 3.39286 16.2857C3.39286 16.2857 4.56814 14.5228 7.46429 14.2771V9.975ZM8.82143 9.975V14.2771C11.7176 14.5228 12.8929 16.2857 12.8929 16.2857C12.8931 15.3894 12.6398 14.5114 12.1621 13.753C11.6844 12.9946 11.002 12.3868 10.1935 11.9999C9.47014 11.6524 8.82143 10.9277 8.82143 9.97636V9.975Z" fill="black"/>
</svg>
