<svg width="33" height="30" viewBox="0 0 33 30" fill="none" xmlns="http://www.w3.org/2000/svg">
<path d="M22.0911 1.59051C23.21 0.562985 24.7148 -0.00846754 26.2791 9.48508e-05C27.8434 0.00865724 29.341 0.596544 30.4471 1.63625C31.5532 2.67595 32.1787 4.08363 32.1878 5.55396C32.1969 7.0243 31.5889 8.43873 30.4958 9.49047L29.1592 10.7467L20.7545 2.84676L22.0931 1.59051H22.0911ZM19.3421 4.17626L3.3618 19.1969C2.70788 19.8122 2.25399 20.59 2.05324 21.439L0.299186 28.8563C0.262499 29.0107 0.267876 29.1712 0.31482 29.3231C0.361764 29.4749 0.448752 29.6132 0.567716 29.725C0.686679 29.8368 0.833763 29.9186 0.99532 29.9627C1.15688 30.0068 1.32767 30.0119 1.49187 29.9774L9.33519 28.3381C10.269 28.1427 11.1242 27.701 11.8005 27.0649L27.7468 12.0762L19.3421 4.17626Z" fill="white"/>
</svg>
