<svg width="22" height="6" viewBox="0 0 22 6" fill="none" xmlns="http://www.w3.org/2000/svg">
<path d="M4.625 3C4.625 3.42029 4.50037 3.83113 4.26687 4.18059C4.03338 4.53004 3.7015 4.80241 3.3132 4.96324C2.92491 5.12408 2.49764 5.16616 2.08543 5.08417C1.67322 5.00218 1.29459 4.79979 0.997399 4.5026C0.700213 4.20542 0.497826 3.82678 0.415832 3.41457C0.333839 3.00236 0.375921 2.57509 0.536757 2.1868C0.697593 1.79851 0.96996 1.46663 1.31941 1.23313C1.66887 0.999629 2.07972 0.875 2.5 0.875C3.06359 0.875 3.60409 1.09888 4.0026 1.4974C4.40112 1.89591 4.625 2.43641 4.625 3ZM19.5 0.875C19.0797 0.875 18.6689 0.999629 18.3194 1.23313C17.97 1.46663 17.6976 1.79851 17.5368 2.1868C17.3759 2.57509 17.3338 3.00236 17.4158 3.41457C17.4978 3.82678 17.7002 4.20542 17.9974 4.5026C18.2946 4.79979 18.6732 5.00218 19.0854 5.08417C19.4976 5.16616 19.9249 5.12408 20.3132 4.96324C20.7015 4.80241 21.0334 4.53004 21.2669 4.18059C21.5004 3.83113 21.625 3.42029 21.625 3C21.625 2.43641 21.4011 1.89591 21.0026 1.4974C20.6041 1.09888 20.0636 0.875 19.5 0.875ZM11 0.875C10.5797 0.875 10.1689 0.999629 9.81941 1.23313C9.46996 1.46663 9.19759 1.79851 9.03676 2.1868C8.87592 2.57509 8.83384 3.00236 8.91583 3.41457C8.99783 3.82678 9.20021 4.20542 9.4974 4.5026C9.79459 4.79979 10.1732 5.00218 10.5854 5.08417C10.9976 5.16616 11.4249 5.12408 11.8132 4.96324C12.2015 4.80241 12.5334 4.53004 12.7669 4.18059C13.0004 3.83113 13.125 3.42029 13.125 3C13.125 2.43641 12.9011 1.89591 12.5026 1.4974C12.1041 1.09888 11.5636 0.875 11 0.875Z" fill="black"/>
</svg>
