<svg width="32" height="32" viewBox="0 0 32 32" fill="none" xmlns="http://www.w3.org/2000/svg">
<path d="M30.6053 16.6365V27.7105C30.6053 28.5829 30.2587 29.4196 29.6418 30.0365C29.0249 30.6534 28.1882 31 27.3158 31L20.7368 31V21.1316C20.7368 20.2591 20.3903 19.4224 19.7734 18.8055C19.1565 18.1887 18.3198 17.8421 17.4474 17.8421H14.1579C13.2855 17.8421 12.4488 18.1887 11.8319 18.8055C11.215 19.4224 10.8684 20.2591 10.8684 21.1316V31L4.28947 31C3.41705 31 2.58036 30.6534 1.96346 30.0365C1.34657 29.4196 1 28.5829 1 27.7105V16.6365C1 15.7442 1.18153 14.8611 1.53356 14.0412C1.88559 13.2212 2.40074 12.4814 3.0477 11.8668L13.5378 1.90461C14.1492 1.32383 14.9602 1 15.8035 1C16.6467 1 17.4577 1.32383 18.0691 1.90461L28.5576 11.8668C29.2045 12.4814 29.7197 13.2212 30.0717 14.0412C30.4237 14.8611 30.6053 15.7442 30.6053 16.6365Z" stroke="#797979" stroke-opacity="0.8" stroke-linecap="round" stroke-linejoin="round"/>
</svg>
