<svg width="30" height="30" viewBox="0 0 30 30" fill="none" xmlns="http://www.w3.org/2000/svg">
<path d="M29.6053 15.6365V26.7105C29.6053 27.5829 29.2587 28.4196 28.6418 29.0365C28.0249 29.6534 27.1882 30 26.3158 30L19.7368 30V20.1316C19.7368 19.2591 19.3903 18.4224 18.7734 17.8055C18.1565 17.1887 17.3198 16.8421 16.4474 16.8421H13.1579C12.2855 16.8421 11.4488 17.1887 10.8319 17.8055C10.215 18.4224 9.86843 19.2591 9.86843 20.1316V30L3.28947 30C2.41705 30 1.58036 29.6534 0.963464 29.0365C0.346568 28.4196 0 27.5829 0 26.7105V15.6365C0 14.7442 0.181533 13.8611 0.533559 13.0412C0.885585 12.2212 1.40074 11.4814 2.0477 10.8668L12.5378 0.904609C13.1492 0.323828 13.9602 0 14.8035 0C15.6467 0 16.4577 0.323828 17.0691 0.904609L27.5576 10.8668C28.2045 11.4814 28.7197 12.2212 29.0717 13.0412C29.4237 13.8611 29.6053 14.7442 29.6053 15.6365Z" fill="#46E297"/>
</svg>
