<svg width="78" height="78" viewBox="0 0 78 78" fill="none" xmlns="http://www.w3.org/2000/svg">
<circle cx="39" cy="39" r="39" fill="#E1E1E1"/>
<path d="M38 42C40.1217 42 42.1566 42.8429 43.6569 44.3431C45.1571 45.8434 46 47.8783 46 50V53C46 53.7957 45.6839 54.5587 45.1213 55.1213C44.5587 55.6839 43.7956 56 43 56H19C18.2044 56 17.4413 55.6839 16.8787 55.1213C16.3161 54.5587 16 53.7957 16 53V50C16 47.8783 16.8429 45.8434 18.3431 44.3431C19.8434 42.8429 21.8783 42 24 42H38ZM31 22C33.3869 22 35.6761 22.9482 37.364 24.636C39.0518 26.3239 40 28.6131 40 31C40 33.3869 39.0518 35.6761 37.364 37.364C35.6761 39.0518 33.3869 40 31 40C28.6131 40 26.3239 39.0518 24.636 37.364C22.9482 35.6761 22 33.3869 22 31C22 28.6131 22.9482 26.3239 24.636 24.636C26.3239 22.9482 28.6131 22 31 22Z" fill="white"/>
<path d="M56.5 43.8117C56.3206 43.8117 56.1471 43.778 55.9794 43.7108C55.8108 43.6435 55.6704 43.5538 55.5583 43.4417L49.37 37.2534C49.1233 37.0067 49 36.6928 49 36.3117C49 35.9305 49.1233 35.6166 49.37 35.37C49.6166 35.1233 49.9305 35 50.3117 35C50.6928 35 51.0067 35.1233 51.2534 35.37L56.5 40.6166L61.7466 35.37C61.9933 35.1233 62.3072 35 62.6883 35C63.0695 35 63.3834 35.1233 63.63 35.37C63.8767 35.6166 64 35.9305 64 36.3117C64 36.6928 63.8767 37.0067 63.63 37.2534L57.4417 43.4417C57.3072 43.5762 57.1614 43.6713 57.0045 43.7269C56.8475 43.7834 56.6794 43.8117 56.5 43.8117Z" fill="white"/>
</svg>
