<svg width="20" height="20" viewBox="0 0 20 20" fill="none" xmlns="http://www.w3.org/2000/svg">
<path d="M19.5027 6.90481C20.1981 9.04185 20.1536 11.3509 19.3764 13.4595C18.5991 15.5681 17.1345 17.3534 15.2186 18.5273C13.3028 19.7012 11.0476 20.1954 8.81659 19.93C6.58563 19.6647 4.50905 18.6554 2.92181 17.0648C1.33456 15.4743 0.329195 13.3953 0.0678708 11.1632C-0.193453 8.93101 0.304501 6.67589 1.48141 4.76153C2.65833 2.84718 4.44558 1.3852 6.55489 0.611414C8.66421 -0.16237 10.9726 -0.202845 13.1077 0.496518L11.798 1.80543C11.7255 1.87669 11.6605 1.95545 11.6005 2.03671C9.89095 1.69154 8.11574 1.90591 6.5374 2.6481C4.95906 3.39029 3.6614 4.62089 2.83636 6.15792C2.01131 7.69494 1.70267 9.45677 1.95609 11.1828C2.20951 12.9089 3.01152 14.5076 4.24353 15.7424C5.47554 16.9772 7.07211 17.7826 8.79713 18.0395C10.5222 18.2964 12.284 17.9911 13.8222 17.1688C15.3603 16.3465 16.5931 15.0509 17.3381 13.4735C18.0832 11.8961 18.301 10.1208 17.9593 8.41C18.0448 8.34932 18.125 8.28158 18.1992 8.20748L19.5015 6.90481H19.5027ZM16.1221 8.75629C16.3904 10.0729 16.2275 11.441 15.6574 12.6576C15.0874 13.8743 14.1405 14.8748 12.9573 15.5109C11.7741 16.147 10.4174 16.3847 9.08853 16.1889C7.75962 15.9931 6.52916 15.3741 5.57958 14.4237C4.63 13.4733 4.01184 12.2422 3.81674 10.9127C3.62165 9.58328 3.86001 8.22634 4.49648 7.04306C5.13296 5.85979 6.13366 4.91317 7.35025 4.34355C8.56683 3.77393 9.93453 3.61162 11.2506 3.88069V5.81343C10.3178 5.53489 9.31886 5.57554 8.41181 5.92895C7.50476 6.28235 6.74147 6.92831 6.24279 7.76456C5.74411 8.60081 5.53853 9.57957 5.65861 10.5459C5.77868 11.5122 6.21754 12.4108 6.9057 13.0995C7.59387 13.7881 8.49202 14.2275 9.45796 14.348C10.4239 14.4686 11.4024 14.2633 12.2386 13.7648C13.0748 13.2664 13.7209 12.5031 14.0746 11.5959C14.4282 10.6887 14.4693 9.68946 14.1913 8.75629H16.1221ZM9.99832 11.8817C10.2858 11.8818 10.5695 11.8158 10.8274 11.6888C11.0853 11.5618 11.3106 11.3771 11.4858 11.149C11.6609 10.921 11.7813 10.6557 11.8376 10.3737C11.8939 10.0917 11.8846 9.80049 11.8105 9.52264L13.7876 7.54364L13.8251 7.50614H16.8745C16.9566 7.50629 17.0379 7.49024 17.1139 7.45892C17.1898 7.4276 17.2588 7.38163 17.3169 7.32362L19.8164 4.82331C19.904 4.73588 19.9637 4.6244 19.9879 4.503C20.0121 4.3816 19.9998 4.25575 19.9524 4.14139C19.905 4.02704 19.8247 3.92933 19.7218 3.86066C19.6188 3.79199 19.4978 3.75545 19.374 3.75567H16.2496V0.630285C16.2496 0.506751 16.213 0.385994 16.1444 0.283263C16.0758 0.180533 15.9783 0.100434 15.8643 0.0530825C15.7502 0.00573085 15.6247 -0.0067507 15.5035 0.0172139C15.3824 0.0411785 15.271 0.100515 15.1836 0.18773L12.6841 2.68804C12.6258 2.74609 12.5796 2.81507 12.5481 2.89101C12.5166 2.96695 12.5004 3.04837 12.5003 3.1306V6.18097C12.4875 6.19313 12.475 6.20563 12.4628 6.21848L10.4857 8.19372C10.2077 8.11911 9.91631 8.10948 9.63401 8.16559C9.3517 8.2217 9.08609 8.34204 8.85773 8.51729C8.62937 8.69254 8.44438 8.91801 8.3171 9.17624C8.18981 9.43447 8.12363 9.71854 8.12369 10.0065C8.12369 10.5038 8.32119 10.9808 8.67276 11.3324C9.02432 11.6841 9.50114 11.8817 9.99832 11.8817Z" fill="black"/>
</svg>
