<svg width="30" height="31" viewBox="0 0 30 31" fill="none" xmlns="http://www.w3.org/2000/svg">
<path d="M30 15.0096C30.0016 12.5125 29.3798 10.0546 28.1909 7.85863C27.0021 5.6627 25.2838 3.79831 23.192 2.43456C21.1002 1.07081 18.7011 0.250852 16.2122 0.0490612C13.7232 -0.152729 11.2233 0.270032 8.93914 1.279C6.65497 2.28797 4.65882 3.85121 3.13176 5.82695C1.6047 7.80269 0.595041 10.1284 0.194363 12.5931C-0.206315 15.0579 0.0146665 17.5836 0.837264 19.9413C1.65986 22.299 3.05805 24.4141 4.905 26.0946C4.94294 26.1419 4.98858 26.1825 5.04 26.2146C7.78454 28.6595 11.3319 30.0104 15.0075 30.0104C18.6831 30.0104 22.2305 28.6595 24.975 26.2146L25.095 26.0946C26.6418 24.6922 27.8774 22.9812 28.7222 21.0719C29.5671 19.1627 30.0024 17.0975 30 15.0096ZM1.2 15.0096C1.19982 12.7415 1.7587 10.5082 2.8272 8.50753C3.8957 6.50682 5.44087 4.80032 7.32599 3.53903C9.21111 2.27774 11.3781 1.50054 13.6351 1.2762C15.8921 1.05187 18.1697 1.38732 20.2662 2.25286C22.3627 3.11841 24.2135 4.48736 25.655 6.2386C27.0964 7.98984 28.0839 10.0694 28.5302 12.2932C28.9765 14.517 28.8678 16.8165 28.2137 18.9883C27.5596 21.1601 26.3802 23.1372 24.78 24.7446C23.2905 22.2492 20.9019 20.4189 18.105 19.6296C19.4039 18.9371 20.434 17.8303 21.0316 16.4851C21.6292 15.1398 21.76 13.6334 21.4031 12.2054C21.0462 10.7773 20.2221 9.50955 19.0619 8.60363C17.9017 7.69771 16.472 7.20564 15 7.20564C13.528 7.20564 12.0983 7.69771 10.9381 8.60363C9.77789 9.50955 8.95384 10.7773 8.59694 12.2054C8.24003 13.6334 8.37077 15.1398 8.96836 16.4851C9.56594 17.8303 10.5961 18.9371 11.895 19.6296C9.09807 20.4189 6.70954 22.2492 5.22 24.7446C2.64707 22.1578 1.20192 18.6582 1.2 15.0096ZM15 19.2096C13.932 19.2096 12.8879 18.8929 11.9999 18.2996C11.1119 17.7062 10.4198 16.8628 10.011 15.8761C9.60233 14.8894 9.4954 13.8036 9.70376 12.7561C9.91212 11.7086 10.4264 10.7465 11.1816 9.99126C11.9368 9.23606 12.899 8.72175 13.9465 8.51339C14.994 8.30503 16.0798 8.41197 17.0665 8.82069C18.0532 9.2294 18.8966 9.92153 19.4899 10.8096C20.0833 11.6976 20.4 12.7416 20.4 13.8096C20.4 15.2418 19.8311 16.6153 18.8184 17.628C17.8057 18.6407 16.4322 19.2096 15 19.2096ZM6.135 25.5696C7.0259 24.0041 8.31546 22.7025 9.87256 21.797C11.4297 20.8916 13.1988 20.4146 15 20.4146C16.8012 20.4146 18.5703 20.8916 20.1274 21.797C21.6845 22.7025 22.9741 24.0041 23.865 25.5696C21.3843 27.6606 18.2444 28.8074 15 28.8074C11.7556 28.8074 8.61568 27.6606 6.135 25.5696Z" fill="#797979" fill-opacity="0.8"/>
</svg>
