<svg width="140" height="140" viewBox="0 0 140 140" fill="none" xmlns="http://www.w3.org/2000/svg">
<circle cx="70" cy="70" r="70" fill="#E1E1E1"/>
<path d="M73.4444 73.1111C76.7449 73.1111 79.9102 74.4222 82.2439 76.756C84.5777 79.0898 85.8888 82.2551 85.8888 85.5556V90.2222C85.8888 91.4599 85.3972 92.6469 84.522 93.5221C83.6468 94.3972 82.4598 94.8889 81.2222 94.8889H43.8888C42.6512 94.8889 41.4642 94.3972 40.589 93.5221C39.7138 92.6469 39.2222 91.4599 39.2222 90.2222V85.5556C39.2222 82.2551 40.5333 79.0898 42.8671 76.756C45.2008 74.4222 48.3661 73.1111 51.6666 73.1111H73.4444ZM92.1111 73.1111C94.5864 73.1111 96.9604 74.0944 98.7107 75.8448C100.461 77.5951 101.444 79.9691 101.444 82.4444V87.1111C101.444 88.3488 100.953 89.5358 100.078 90.4109C99.2024 91.2861 98.0154 91.7778 96.7777 91.7778H92.1111V85.5556C92.113 83.1403 91.5516 80.7579 90.4714 78.5976C89.3913 76.4373 87.8222 74.5587 85.8888 73.1111H92.1111ZM62.5555 42C66.2685 42 69.8295 43.475 72.455 46.1005C75.0805 48.726 76.5555 52.287 76.5555 56C76.5555 59.713 75.0805 63.274 72.455 65.8995C69.8295 68.525 66.2685 70 62.5555 70C58.8425 70 55.2815 68.525 52.656 65.8995C50.0305 63.274 48.5555 59.713 48.5555 56C48.5555 52.287 50.0305 48.726 52.656 46.1005C55.2815 43.475 58.8425 42 62.5555 42V42ZM88.9999 51.3333C91.4753 51.3333 93.8493 52.3167 95.5996 54.067C97.3499 55.8173 98.3333 58.1913 98.3333 60.6667C98.3333 63.142 97.3499 65.516 95.5996 67.2663C93.8493 69.0167 91.4753 70 88.9999 70C86.5246 70 84.1506 69.0167 82.4003 67.2663C80.6499 65.516 79.6666 63.142 79.6666 60.6667C79.6666 58.1913 80.6499 55.8173 82.4003 54.067C84.1506 52.3167 86.5246 51.3333 88.9999 51.3333Z" fill="white"/>
</svg>
