<svg width="76" height="76" viewBox="0 0 76 76" fill="none" xmlns="http://www.w3.org/2000/svg">
<path d="M41.1109 41.1111C44.4114 41.1111 47.5767 42.4222 49.9104 44.756C52.2442 47.0898 53.5553 50.2551 53.5553 53.5556V58.2222C53.5553 59.4599 53.0637 60.6469 52.1885 61.5221C51.3133 62.3972 50.1263 62.8889 48.8887 62.8889H11.5553C10.3177 62.8889 9.13068 62.3972 8.25551 61.5221C7.38034 60.6469 6.88867 59.4599 6.88867 58.2222V53.5556C6.88867 50.2551 8.19978 47.0898 10.5336 44.756C12.8674 42.4222 16.0326 41.1111 19.3331 41.1111H41.1109ZM59.7776 41.1111C62.2529 41.1111 64.6269 42.0944 66.3772 43.8448C68.1276 45.5951 69.1109 47.9691 69.1109 50.4444V55.1111C69.1109 56.3488 68.6192 57.5358 67.7441 58.4109C66.8689 59.2861 65.6819 59.7778 64.4442 59.7778H59.7776V53.5556C59.7795 51.1403 59.2181 48.7579 58.1379 46.5976C57.0578 44.4373 55.4887 42.5587 53.5553 41.1111H59.7776ZM30.222 10C33.935 10 37.496 11.475 40.1215 14.1005C42.747 16.726 44.222 20.287 44.222 24C44.222 27.713 42.747 31.274 40.1215 33.8995C37.496 36.525 33.935 38 30.222 38C26.509 38 22.948 36.525 20.3225 33.8995C17.697 31.274 16.222 27.713 16.222 24C16.222 20.287 17.697 16.726 20.3225 14.1005C22.948 11.475 26.509 10 30.222 10ZM56.6664 19.3333C59.1418 19.3333 61.5158 20.3167 63.2661 22.067C65.0164 23.8173 65.9998 26.1913 65.9998 28.6667C65.9998 31.142 65.0164 33.516 63.2661 35.2663C61.5158 37.0167 59.1418 38 56.6664 38C54.1911 38 51.8171 37.0167 50.0668 35.2663C48.3164 33.516 47.3331 31.142 47.3331 28.6667C47.3331 26.1913 48.3164 23.8173 50.0668 22.067C51.8171 20.3167 54.1911 19.3333 56.6664 19.3333Z" fill="white"/>
</svg>
