<svg width="20" height="20" viewBox="0 0 20 20" fill="none" xmlns="http://www.w3.org/2000/svg">
<path d="M2.5 0C1.83696 0 1.20107 0.263413 0.732233 0.732292C0.263392 1.20117 0 1.83711 0 2.5002V4.48869C0 5.35543 0.45 6.15883 1.185 6.61386L7.62833 10.5975C6.64828 11.1256 5.87249 11.9657 5.4239 12.9847C4.97531 14.0036 4.87958 15.1432 5.15188 16.2227C5.42417 17.3022 6.04893 18.26 6.92713 18.9442C7.80533 19.6284 8.88674 20 10 20C11.1133 20 12.1947 19.6284 13.0729 18.9442C13.9511 18.26 14.5758 17.3022 14.8481 16.2227C15.1204 15.1432 15.0247 14.0036 14.5761 12.9847C14.1275 11.9657 13.3517 11.1256 12.3717 10.5975L18.815 6.61386C19.1771 6.38987 19.4761 6.07709 19.6835 5.70518C19.8908 5.33326 19.9998 4.91453 20 4.48869V2.5002C20 1.83711 19.7366 1.20117 19.2678 0.732292C18.7989 0.263413 18.163 0 17.5 0H2.5ZM6.66667 8.04398V1.6668H13.3333V8.04398L10.4383 9.83412C10.3066 9.91558 10.1548 9.95873 10 9.95873C9.84515 9.95873 9.69336 9.91558 9.56167 9.83412L6.66667 8.04398ZM10 11.6676C10.8841 11.6676 11.7319 12.0188 12.357 12.644C12.9821 13.2692 13.3333 14.1171 13.3333 15.0012C13.3333 15.8853 12.9821 16.7332 12.357 17.3584C11.7319 17.9836 10.8841 18.3348 10 18.3348C9.11594 18.3348 8.2681 17.9836 7.64298 17.3584C7.01786 16.7332 6.66667 15.8853 6.66667 15.0012C6.66667 14.1171 7.01786 13.2692 7.64298 12.644C8.2681 12.0188 9.11594 11.6676 10 11.6676Z" fill="black"/>
</svg>
