<svg width="26" height="26" viewBox="0 0 26 26" fill="none" xmlns="http://www.w3.org/2000/svg">
<path d="M0.174842 15.1184C-0.0582807 13.7158 -0.0582807 12.2842 0.174842 10.8816C1.60706 10.9154 2.89371 10.2291 3.39407 9.02177C3.89444 7.8131 3.46945 6.41728 2.43233 5.43084C3.25945 4.27323 4.27207 3.26017 5.42933 2.43255C6.41706 3.46967 7.81288 3.89466 9.02156 3.39429C10.2302 2.89393 10.9151 1.60597 10.8801 0.175058C12.2836 -0.0583527 13.716 -0.0583527 15.1195 0.175058C15.0844 1.60727 15.7706 2.89393 16.978 3.39429C18.1867 3.89466 19.5825 3.46967 20.5689 2.43255C21.7266 3.25966 22.7396 4.27229 23.5672 5.42954C22.5301 6.41728 22.1051 7.8131 22.6055 9.02177C23.1059 10.2304 24.3938 10.9154 25.8247 10.8803C26.0581 12.2838 26.0581 13.7162 25.8247 15.1197C24.3925 15.0846 23.1059 15.7709 22.6055 16.9782C22.1051 18.1869 22.5301 19.5827 23.5672 20.5692C22.7401 21.7268 21.7275 22.7398 20.5702 23.5675C19.5825 22.5303 18.1867 22.1053 16.978 22.6057C15.7693 23.1061 15.0844 24.394 15.1195 25.8249C13.716 26.0584 12.2836 26.0584 10.8801 25.8249C10.9151 24.3927 10.2289 23.1061 9.02156 22.6057C7.81288 22.1053 6.41706 22.5303 5.43062 23.5675C4.27301 22.7403 3.25995 21.7277 2.43233 20.5705C3.46945 19.5827 3.89444 18.1869 3.39407 16.9782C2.89371 15.7696 1.60576 15.0846 0.174842 15.1197V15.1184ZM12.9998 16.8989C14.0338 16.8989 15.0256 16.4882 15.7568 15.757C16.488 15.0258 16.8987 14.0341 16.8987 13C16.8987 11.9659 16.488 10.9742 15.7568 10.243C15.0256 9.51183 14.0338 9.10105 12.9998 9.10105C11.9657 9.10105 10.974 9.51183 10.2428 10.243C9.51162 10.9742 9.10084 11.9659 9.10084 13C9.10084 14.0341 9.51162 15.0258 10.2428 15.757C10.974 16.4882 11.9657 16.8989 12.9998 16.8989Z" fill="black"/>
</svg>
